<svg id="line" height="512" viewBox="0 0 64 64" width="512" xmlns="http://www.w3.org/2000/svg"><path d="m47 52h-16a1 1 0 0 0 -1 1 9 9 0 0 0 18 0 1 1 0 0 0 -1-1z" fill="#c4a2fc"/><path d="m62 44a8.009 8.009 0 0 1 -8-8v-9a15 15 0 0 0 -30 0v9a8.009 8.009 0 0 1 -8 8 1 1 0 0 0 -1 1v4a1 1 0 0 0 1 1h46a1 1 0 0 0 1-1v-4a1 1 0 0 0 -1-1zm-11-16a1 1 0 0 1 -1-1 11.013 11.013 0 0 0 -11-11 1 1 0 0 1 0-2 13.015 13.015 0 0 1 13 13 1 1 0 0 1 -1 1z" fill="#c4a2fc"/><g fill="#151a6a"><path d="m26 4a22 22 0 1 0 22 22 22.025 22.025 0 0 0 -22-22zm0 42a20 20 0 1 1 20-20 20.023 20.023 0 0 1 -20 20z"/><path d="m26 9a17 17 0 1 0 17 17 17.019 17.019 0 0 0 -17-17zm0 32a15 15 0 1 1 15-15 15.017 15.017 0 0 1 -15 15z"/><path d="m26 22a3.971 3.971 0 0 0 -1.062.161l-3.572-6.187a1 1 0 1 0 -1.732 1l3.566 6.176a4 4 0 0 0 -1.058 1.85h-6.142a1 1 0 0 0 0 2h6.142a3.993 3.993 0 1 0 3.858-5zm0 6a2 2 0 1 1 2-2 2 2 0 0 1 -2 2z"/><path d="m12.707 5.423a1 1 0 0 0 0-1.414 6.858 6.858 0 1 0 -9.7 9.7 1 1 0 0 0 1.414 0zm-9.707 3.434a4.861 4.861 0 0 1 7.514-4.069l-6.726 6.726a4.831 4.831 0 0 1 -.788-2.657z"/><path d="m44.143 2a6.813 6.813 0 0 0 -4.85 2.009 1 1 0 0 0 0 1.414l8.284 8.284a1 1 0 0 0 1.414 0 6.858 6.858 0 0 0 -4.848-11.707zm4.069 9.514-6.726-6.726a4.861 4.861 0 0 1 6.726 6.726z"/></g></svg>